{
  "accessors": [
    {
      "bufferView": 2,
      "componentType": 5126,
      "count": 12,
      "max": [
        6.637702465057373,
        11.192108154296875,
        -6.1929168701171875
      ],
      "min": [
        -2.689645767211914,
        1.0229032039642334,
        -9.0
      ],
      "type": "VEC3"
    },
    {
      "bufferView": 2,
      "byteOffset": 144,
      "componentType": 5126,
      "count": 12,
      "max": [
        0.6407361626625061,
        0.0003286991559434682,
        1.0
      ],
      "min": [
        -0.6409634947776794,
        -0.0006408420740626752,
        0.7675713300704956
      ],
      "type": "VEC3"
    },
    {
      "bufferView": 1,
      "componentType": 5126,
      "count": 12,
      "max": [
        2.6594479084014893,
        2.6594481468200684
      ],
      "min": [
        -1.6594481468200684,
        -1.6594481468200684
      ],
      "type": "VEC2"
    },
    {
      "bufferView": 0,
      "componentType": 5125,
      "count": 18,
      "type": "SCALAR"
    },
    {
      "bufferView": 2,
      "byteOffset": 288,
      "componentType": 5126,
      "count": 1559,
      "max": [
        1.637702465057373,
        1.0163240432739258,
        2.5065231323242188
      ],
      "min": [
        -8.243327140808105,
        -9.0,
        -10.001360893249512
      ],
      "type": "VEC3"
    },
    {
      "bufferView": 2,
      "byteOffset": 18996,
      "componentType": 5126,
      "count": 1559,
      "max": [
        1.0,
        1.0,
        1.0
      ],
      "min": [
        -1.0,
        -1.0,
        -1.0
      ],
      "type": "VEC3"
    },
    {
      "bufferView": 1,
      "byteOffset": 96,
      "componentType": 5126,
      "count": 1559,
      "max": [
        1.000591516494751,
        0.9982122778892517
      ],
      "min": [
        0.0021792352199554443,
        -7.656210800632834e-05
      ],
      "type": "VEC2"
    },
    {
      "bufferView": 0,
      "byteOffset": 72,
      "componentType": 5125,
      "count": 2673,
      "type": "SCALAR"
    },
    {
      "bufferView": 2,
      "byteOffset": 37704,
      "componentType": 5126,
      "count": 1547,
      "max": [
        6.637702465057373,
        11.358968734741211,
        -7.493476867675781
      ],
      "min": [
        -3.2433271408081055,
        1.0,
        -20.001361846923828
      ],
      "type": "VEC3"
    },
    {
      "bufferView": 2,
      "byteOffset": 56268,
      "componentType": 5126,
      "count": 1547,
      "max": [
        1.0,
        1.0,
        1.0
      ],
      "min": [
        -1.0,
        -1.0,
        -1.0
      ],
      "type": "VEC3"
    },
    {
      "bufferView": 1,
      "byteOffset": 12568,
      "componentType": 5126,
      "count": 1547,
      "max": [
        1.000591516494751,
        0.9982122778892517
      ],
      "min": [
        0.00029024481773376465,
        -7.656210800632834e-05
      ],
      "type": "VEC2"
    },
    {
      "bufferView": 0,
      "byteOffset": 10764,
      "componentType": 5125,
      "count": 2757,
      "type": "SCALAR"
    },
    {
      "bufferView": 2,
      "byteOffset": 74832,
      "componentType": 5126,
      "count": 16,
      "max": [
        6.637702465057373,
        11.358966827392578,
        -6.1929168701171875
      ],
      "min": [
        -2.689645767211914,
        0.8752899169921875,
        -9.0
      ],
      "type": "VEC3"
    },
    {
      "bufferView": 2,
      "byteOffset": 75024,
      "componentType": 5126,
      "count": 16,
      "max": [
        0.6409581899642944,
        0.8444241285324097,
        1.0
      ],
      "min": [
        -0.6408035755157471,
        -0.0006161872297525406,
        0.5356751084327698
      ],
      "type": "VEC3"
    },
    {
      "bufferView": 1,
      "byteOffset": 24944,
      "componentType": 5126,
      "count": 16,
      "max": [
        2.6594481468200684,
        2.6594481468200684
      ],
      "min": [
        -1.6594481468200684,
        -1.6594481468200684
      ],
      "type": "VEC2"
    },
    {
      "bufferView": 0,
      "byteOffset": 21792,
      "componentType": 5125,
      "count": 24,
      "type": "SCALAR"
    },
    {
      "bufferView": 2,
      "byteOffset": 75216,
      "componentType": 5126,
      "count": 1559,
      "max": [
        1.637702465057373,
        1.0163240432739258,
        2.5065231323242188
      ],
      "min": [
        -8.243327140808105,
        -9.0,
        -10.001360893249512
      ],
      "type": "VEC3"
    },
    {
      "bufferView": 2,
      "byteOffset": 93924,
      "componentType": 5126,
      "count": 1559,
      "max": [
        1.0,
        1.0,
        1.0
      ],
      "min": [
        -1.0,
        -1.0,
        -1.0
      ],
      "type": "VEC3"
    },
    {
      "bufferView": 1,
      "byteOffset": 25072,
      "componentType": 5126,
      "count": 1559,
      "max": [
        1.000591516494751,
        0.9982122778892517
      ],
      "min": [
        0.0021792352199554443,
        -7.656210800632834e-05
      ],
      "type": "VEC2"
    },
    {
      "bufferView": 0,
      "byteOffset": 21888,
      "componentType": 5125,
      "count": 2673,
      "type": "SCALAR"
    },
    {
      "bufferView": 2,
      "byteOffset": 112632,
      "componentType": 5126,
      "count": 12,
      "max": [
        6.637702465057373,
        11.008867263793945,
        -6.1929168701171875
      ],
      "min": [
        -2.689645767211914,
        1.0229032039642334,
        -9.0
      ],
      "type": "VEC3"
    },
    {
      "bufferView": 2,
      "byteOffset": 112776,
      "componentType": 5126,
      "count": 12,
      "max": [
        0.6407551169395447,
        0.0003342981799505651,
        1.0
      ],
      "min": [
        -0.6409536600112915,
        -0.0006517875008285046,
        0.7675795555114746
      ],
      "type": "VEC3"
    },
    {
      "bufferView": 1,
      "byteOffset": 37544,
      "componentType": 5126,
      "count": 12,
      "max": [
        2.6594479084014893,
        2.6594481468200684
      ],
      "min": [
        -1.6594481468200684,
        -1.6594481468200684
      ],
      "type": "VEC2"
    },
    {
      "bufferView": 0,
      "byteOffset": 32580,
      "componentType": 5125,
      "count": 18,
      "type": "SCALAR"
    },
    {
      "bufferView": 2,
      "byteOffset": 112920,
      "componentType": 5126,
      "count": 16,
      "max": [
        6.637702465057373,
        11.358966827392578,
        -6.1929168701171875
      ],
      "min": [
        -2.689645767211914,
        0.9663419723510742,
        -9.0
      ],
      "type": "VEC3"
    },
    {
      "bufferView": 2,
      "byteOffset": 113112,
      "componentType": 5126,
      "count": 16,
      "max": [
        0.6409529447555542,
        0.8444241285324097,
        1.0
      ],
      "min": [
        -0.6408059000968933,
        -0.0006187308463267982,
        0.5356751084327698
      ],
      "type": "VEC3"
    },
    {
      "bufferView": 1,
      "byteOffset": 37640,
      "componentType": 5126,
      "count": 16,
      "max": [
        2.6594481468200684,
        2.6594481468200684
      ],
      "min": [
        -1.6594481468200684,
        -1.6594481468200684
      ],
      "type": "VEC2"
    },
    {
      "bufferView": 0,
      "byteOffset": 32652,
      "componentType": 5125,
      "count": 24,
      "type": "SCALAR"
    },
    {
      "bufferView": 2,
      "byteOffset": 113304,
      "componentType": 5126,
      "count": 1547,
      "max": [
        6.637702465057373,
        11.358968734741211,
        -7.493476867675781
      ],
      "min": [
        -3.2433271408081055,
        1.0,
        -20.001361846923828
      ],
      "type": "VEC3"
    },
    {
      "bufferView": 2,
      "byteOffset": 131868,
      "componentType": 5126,
      "count": 1547,
      "max": [
        1.0,
        1.0,
        1.0
      ],
      "min": [
        -1.0,
        -1.0,
        -1.0
      ],
      "type": "VEC3"
    },
    {
      "bufferView": 1,
      "byteOffset": 37768,
      "componentType": 5126,
      "count": 1547,
      "max": [
        1.000591516494751,
        0.9982122778892517
      ],
      "min": [
        0.00029024481773376465,
        -7.656210800632834e-05
      ],
      "type": "VEC2"
    },
    {
      "bufferView": 0,
      "byteOffset": 32748,
      "componentType": 5125,
      "count": 2757,
      "type": "SCALAR"
    }
  ],
  "asset": {
    "extras": {
      "author": "mamont nikita (https://sketchfab.com/mamontnikita62)",
      "license": "CC-BY-4.0 (http://creativecommons.org/licenses/by/4.0/)",
      "source": "https://sketchfab.com/3d-models/ussr-house-dce1176c20c04ee3aab9fe72ebc9e0b5",
      "title": "USSR House"
    },
    "generator": "Sketchfab-15.83.0",
    "version": "2.0"
  },
  "bufferViews": [
    {
      "buffer": 0,
      "byteLength": 43776,
      "name": "floatBufferViews",
      "target": 34963
    },
    {
      "buffer": 0,
      "byteLength": 50144,
      "byteOffset": 43776,
      "byteStride": 8,
      "name": "floatBufferViews",
      "target": 34962
    },
    {
      "buffer": 0,
      "byteLength": 150432,
      "byteOffset": 93920,
      "byteStride": 12,
      "name": "floatBufferViews",
      "target": 34962
    }
  ],
  "buffers": [
    {
      "byteLength": 244352,
      "uri": "scene.bin"
    }
  ],
  "images": [
    {
      "uri": "textures/Scene_-_Root_baseColor.png"
    }
  ],
  "materials": [
    {
      "doubleSided": true,
      "name": "Scene_-_Root",
      "pbrMetallicRoughness": {
        "baseColorTexture": {
          "index": 0
        },
        "metallicFactor": 0.0,
        "roughnessFactor": 0.6
      }
    }
  ],
  "meshes": [
    {
      "name": "Cube.005__0",
      "primitives": [
        {
          "attributes": {
            "NORMAL": 1,
            "POSITION": 0,
            "TEXCOORD_0": 2
          },
          "indices": 3,
          "material": 0,
          "mode": 4
        }
      ]
    },
    {
      "name": "Cube.004__0",
      "primitives": [
        {
          "attributes": {
            "NORMAL": 5,
            "POSITION": 4,
            "TEXCOORD_0": 6
          },
          "indices": 7,
          "material": 0,
          "mode": 4
        }
      ]
    },
    {
      "name": "Cube.003__0",
      "primitives": [
        {
          "attributes": {
            "NORMAL": 9,
            "POSITION": 8,
            "TEXCOORD_0": 10
          },
          "indices": 11,
          "material": 0,
          "mode": 4
        }
      ]
    },
    {
      "name": "Cube.002__0",
      "primitives": [
        {
          "attributes": {
            "NORMAL": 13,
            "POSITION": 12,
            "TEXCOORD_0": 14
          },
          "indices": 15,
          "material": 0,
          "mode": 4
        }
      ]
    },
    {
      "name": "Cube.001__0",
      "primitives": [
        {
          "attributes": {
            "NORMAL": 17,
            "POSITION": 16,
            "TEXCOORD_0": 18
          },
          "indices": 19,
          "material": 0,
          "mode": 4
        }
      ]
    },
    {
      "name": "Cube.000__0",
      "primitives": [
        {
          "attributes": {
            "NORMAL": 21,
            "POSITION": 20,
            "TEXCOORD_0": 22
          },
          "indices": 23,
          "material": 0,
          "mode": 4
        }
      ]
    },
    {
      "name": "Cube.006__0",
      "primitives": [
        {
          "attributes": {
            "NORMAL": 25,
            "POSITION": 24,
            "TEXCOORD_0": 26
          },
          "indices": 27,
          "material": 0,
          "mode": 4
        }
      ]
    },
    {
      "name": "Cube.008__0",
      "primitives": [
        {
          "attributes": {
            "NORMAL": 29,
            "POSITION": 28,
            "TEXCOORD_0": 30
          },
          "indices": 31,
          "material": 0,
          "mode": 4
        }
      ]
    }
  ],
  "nodes": [
    {
      "children": [
        1
      ],
      "matrix": [
        1.0,
        0.0,
        0.0,
        0.0,
        0.0,
        2.220446049250313e-16,
        -1.0,
        0.0,
        0.0,
        1.0,
        2.220446049250313e-16,
        0.0,
        0.0,
        0.0,
        0.0,
        1.0
      ],
      "name": "Sketchfab_model"
    },
    {
      "children": [
        2
      ],
      "matrix": [
        0.009999999776482582,
        0.0,
        0.0,
        0.0,
        0.0,
        0.0,
        0.009999999776482582,
        0.0,
        0.0,
        -0.009999999776482582,
        0.0,
        0.0,
        0.0,
        0.0,
        0.0,
        1.0
      ],
      "name": "house.fbx"
    },
    {
      "children": [
        3,
        5,
        7,
        9,
        11,
        13,
        15,
        17
      ],
      "name": "RootNode"
    },
    {
      "children": [
        4
      ],
      "matrix": [
        100.0,
        0.0,
        0.0,
        0.0,
        -0.0,
        -1.629206793918314e-05,
        -99.99999999999868,
        0.0,
        0.0,
        99.99999999999868,
        -1.629206793918314e-05,
        0.0,
        -500.0,
        1800.0,
        2592.624755859375,
        1.0
      ],
      "name": "Cube.005"
    },
    {
      "mesh": 0,
      "name": "Cube.005__0"
    },
    {
      "children": [
        6
      ],
      "matrix": [
        100.0,
        0.0,
        0.0,
        0.0,
        0.0,
        -1.629206793918314e-05,
        -99.99999999999868,
        0.0,
        0.0,
        99.99999999999868,
        -1.629206793918314e-05,
        0.0,
        0.0,
        800.0,
        1592.6246337890625,
        1.0
      ],
      "name": "Cube.004"
    },
    {
      "mesh": 1,
      "name": "Cube.004__0"
    },
    {
      "children": [
        8
      ],
      "matrix": [
        99.9999999999996,
        8.742277980456488e-06,
        -0.0,
        -0.0,
        1.4242978711041864e-12,
        -1.6292067994694293e-05,
        99.99999999999865,
        -0.0,
        -8.74227798045637e-06,
        99.99999999999828,
        1.6292067983592062e-05,
        -0.0,
        -500.0,
        1800.0,
        2384.849609375,
        1.0
      ],
      "name": "Cube.003"
    },
    {
      "mesh": 2,
      "name": "Cube.003__0"
    },
    {
      "children": [
        10
      ],
      "matrix": [
        99.9999999999996,
        8.742277980456488e-06,
        -0.0,
        -0.0,
        1.4242978711041864e-12,
        -1.6292067994694293e-05,
        99.99999999999865,
        -0.0,
        -8.74227798045637e-06,
        99.99999999999828,
        1.6292067983592062e-05,
        -0.0,
        -500.0,
        1800.0,
        2384.849609375,
        1.0
      ],
      "name": "Cube.002"
    },
    {
      "mesh": 3,
      "name": "Cube.002__0"
    },
    {
      "children": [
        12
      ],
      "matrix": [
        99.9999999999996,
        8.742277980456488e-06,
        -0.0,
        -0.0,
        1.4242978711041864e-12,
        -1.6292067994694293e-05,
        99.99999999999865,
        -0.0,
        -8.74227798045637e-06,
        99.99999999999828,
        1.6292067983592062e-05,
        -0.0,
        0.0,
        800.0,
        1392.624755859375,
        1.0
      ],
      "name": "Cube.001"
    },
    {
      "mesh": 4,
      "name": "Cube.001__0"
    },
    {
      "children": [
        14
      ],
      "matrix": [
        99.9999999999996,
        8.742277980456488e-06,
        -0.0,
        -0.0,
        1.4242978711041864e-12,
        -1.6292067994694293e-05,
        99.99999999999865,
        -0.0,
        -8.74227798045637e-06,
        99.99999999999828,
        1.6292067983592062e-05,
        -0.0,
        -500.0,
        1800.0,
        392.624755859375,
        1.0
      ],
      "name": "Cube.000"
    },
    {
      "mesh": 5,
      "name": "Cube.000__0"
    },
    {
      "children": [
        16
      ],
      "matrix": [
        100.0,
        0.0,
        0.0,
        0.0,
        -0.0,
        -1.629206793918314e-05,
        -99.99999999999868,
        0.0,
        0.0,
        99.99999999999868,
        -1.629206793918314e-05,
        0.0,
        -500.0,
        1800.0,
        600.0,
        1.0
      ],
      "name": "Cube.006"
    },
    {
      "mesh": 6,
      "name": "Cube.006__0"
    },
    {
      "children": [
        18
      ],
      "matrix": [
        100.0,
        0.0,
        0.0,
        0.0,
        -0.0,
        -1.629206793918314e-05,
        -99.99999999999868,
        0.0,
        0.0,
        99.99999999999868,
        -1.629206793918314e-05,
        0.0,
        -500.0,
        1800.0,
        600.0,
        1.0
      ],
      "name": "Cube.008"
    },
    {
      "mesh": 7,
      "name": "Cube.008__0"
    }
  ],
  "samplers": [
    {
      "magFilter": 9729,
      "minFilter": 9987,
      "wrapS": 10497,
      "wrapT": 10497
    }
  ],
  "scene": 0,
  "scenes": [
    {
      "name": "Sketchfab_Scene",
      "nodes": [
        0
      ]
    }
  ],
  "textures": [
    {
      "sampler": 0,
      "source": 0
    }
  ]
}
